<svg width="185" height="185" viewBox="0 0 185 185" fill="none" xmlns="http://www.w3.org/2000/svg">
<rect width="185" height="185" rx="30" fill="url(#paint0_radial_3_43)"/>
<path d="M72.2 46.528C75.9547 46.3573 79.624 46.272 83.208 46.272C86.8773 46.272 90.7173 46.656 94.728 47.424C98.824 48.192 102.835 49.6427 106.76 51.776C110.771 53.824 114.141 56.512 116.872 59.84C119.688 63.0827 121.949 67.392 123.656 72.768C125.363 78.144 126.216 84.672 126.216 92.352C126.216 100.032 124.936 106.944 122.376 113.088C119.901 119.147 116.488 123.797 112.136 127.04C103.688 133.355 93.4907 136.512 81.544 136.512C77.3627 136.512 72.968 136.341 68.36 136H61.96V46.528H72.2ZM72.584 134.976C74.376 135.147 76.6373 135.232 79.368 135.232C82.0987 135.232 84.1467 135.189 85.512 135.104C86.8773 135.019 88.7547 134.677 91.144 134.08C93.5333 133.397 95.752 132.501 97.8 131.392C99.848 130.283 101.981 128.661 104.2 126.528C106.504 124.309 108.467 121.707 110.088 118.72C113.757 111.723 115.592 102.592 115.592 91.328C115.592 83.3067 114.611 76.3947 112.648 70.592C110.685 64.704 108.424 60.352 105.864 57.536C103.389 54.72 100.36 52.5013 96.776 50.88C93.192 49.1733 90.3333 48.192 88.2 47.936C86.0667 47.68 83.592 47.552 80.776 47.552C77.96 47.552 75.2293 47.68 72.584 47.936V134.976Z" fill="white"/>
<defs>
<radialGradient id="paint0_radial_3_43" cx="0" cy="0" r="1" gradientUnits="userSpaceOnUse" gradientTransform="translate(92.5 237.709) rotate(-108.938) scale(353.478)">
<stop stop-color="#4D4D4D"/>
<stop offset="0.399038" stop-color="#2B2B2B"/>
</radialGradient>
</defs>
</svg>
